<svg width="316" height="43" viewBox="0 0 316 43" fill="none" xmlns="http://www.w3.org/2000/svg">
<rect x="0.92997" y="0.731453" width="314.006" height="40.9573" rx="5.77603" stroke="#1877F2" stroke-width="1.05019"/>
<path d="M115.984 17.1873V26.0088H122.046V24.6982H117.396V17.1873H115.984ZM125.903 19.6699C123.975 19.6699 122.702 21.0814 122.702 22.9087C122.702 24.7486 123.962 26.1349 125.903 26.1349C127.856 26.1349 129.129 24.7486 129.129 22.9087C129.129 21.0814 127.818 19.6699 125.903 19.6699ZM125.903 20.8671C127.037 20.8671 127.818 21.8123 127.818 22.9087C127.818 24.0177 127.1 24.925 125.903 24.925C124.718 24.925 124 24.0177 124 22.9087C124 21.8123 124.718 20.8671 125.903 20.8671ZM135.164 20.0354C134.723 19.7329 134.005 19.6069 133.488 19.6069C131.799 19.6069 130.123 20.6529 130.123 22.7323C130.123 24.673 131.472 25.8324 133.488 25.8324C134.647 25.8324 135.441 26.3113 135.441 27.1808C135.441 28.063 134.42 28.4537 133.463 28.4537C132.429 28.4411 131.446 27.9244 131.484 26.954H130.186C130.136 28.6805 131.434 29.7139 133.463 29.7139C135.126 29.7139 136.79 28.8695 136.79 27.1808C136.79 26.4373 136.424 25.5804 135.151 25.1519C136.26 24.7234 136.802 23.8286 136.802 22.7323C136.802 21.9635 136.563 21.409 136.046 20.8041L136.79 19.9346L135.845 19.2036L135.164 20.0354ZM133.488 20.8167C134.559 20.8167 135.504 21.5098 135.504 22.7323C135.504 23.8539 134.635 24.6352 133.488 24.6352C132.366 24.6352 131.434 23.9673 131.434 22.7323C131.434 21.4342 132.429 20.8167 133.488 20.8167ZM142.678 19.7707V26.0088H141.38V19.7707H142.678ZM141.229 17.9686C141.229 19.0398 142.842 19.0398 142.842 17.9686C142.842 16.91 141.229 16.91 141.229 17.9686ZM150.469 26.0088V22.6692C150.469 20.7663 149.309 19.6951 147.797 19.6951C146.991 19.6951 146.297 20.0228 145.705 20.6907L145.629 19.7833H144.445V26.0088H145.743V22.7575C145.743 21.7367 146.449 20.8923 147.482 20.8923C148.553 20.8923 149.158 21.6107 149.158 22.6818V26.0088H150.469ZM158.886 19.7833L157.399 24.673L155.862 19.7833H154.4L156.593 26.034H158.105L158.836 23.9673L159.453 21.7997L160.058 23.9673L160.789 26.034H162.301L164.482 19.7833H163.032L161.495 24.673L160.008 19.7833H158.886ZM166.96 19.7707V26.0088H165.662V19.7707H166.96ZM165.511 17.9686C165.511 19.0398 167.124 19.0398 167.124 17.9686C167.124 16.91 165.511 16.91 165.511 17.9686ZM169.419 18.145V19.8085H168.222V20.9301H169.419V23.8917C169.419 25.3535 170.188 26.1223 171.537 26.0844C171.978 26.0844 172.356 25.9962 172.784 25.8072L172.406 24.6982C172.154 24.8242 171.864 24.9124 171.612 24.9124C171.007 24.9124 170.717 24.547 170.717 23.8917V20.9301H172.545V19.8085H170.73V18.0064L169.419 18.145ZM173.858 17.1873V26.0088H175.156V22.7701C175.156 21.7493 175.862 20.9175 176.87 20.9175C177.828 20.9175 178.433 21.4972 178.433 22.6692V26.0088H179.731V22.6566C179.731 20.8797 178.924 19.7077 177.173 19.7077C176.429 19.7077 175.698 19.9598 175.156 20.7159V17.1873H173.858ZM186.179 26.0088V22.5684H190.766V21.2578H186.179V18.5735H191.006V17.1999H184.768V26.0088H186.179ZM197.21 20.7789C196.819 20.0732 195.975 19.6573 195.093 19.6573C193.303 19.6573 191.879 20.8167 191.879 22.8961C191.879 25.0133 193.253 26.1853 195.067 26.1727C195.836 26.1727 196.794 25.7946 197.21 25.0007L197.273 26.0088H198.508C198.508 23.9421 198.508 21.8627 198.508 19.7959H197.248L197.21 20.7789ZM195.193 20.8419C197.878 20.8419 197.878 24.9628 195.193 24.9628C194.084 24.9628 193.177 24.1815 193.177 22.8961C193.177 21.6233 194.084 20.8419 195.193 20.8419ZM204.642 24.3327C204.239 24.7486 203.697 24.9124 203.167 24.9124C202.096 24.9124 201.189 24.2193 201.189 22.9087C201.189 21.6737 202.058 20.8797 203.18 20.8797C203.671 20.8797 204.188 21.0562 204.579 21.4342L205.411 20.5647C204.743 19.9093 204.024 19.6447 203.167 19.6447C201.365 19.6447 199.891 20.7663 199.891 22.9087C199.891 25.0511 201.378 26.1727 203.167 26.1727C204.062 26.1727 204.831 25.8828 205.524 25.2023L204.642 24.3327ZM212.544 23.3876C212.784 20.8545 211.423 19.6321 209.419 19.6321C207.478 19.6321 206.155 20.9805 206.155 22.8709C206.155 24.862 207.466 26.1601 209.507 26.1601C210.465 26.1601 211.536 25.8072 212.179 25.1015L211.335 24.2823C210.956 24.7108 210.163 24.9502 209.532 24.9502C208.398 24.9502 207.617 24.3327 207.503 23.3876H212.544ZM207.529 22.2912C207.73 21.3082 208.512 20.7915 209.457 20.7915C210.503 20.7915 211.221 21.3082 211.297 22.2912H207.529ZM217.233 20.8797C218.317 20.8797 219.199 21.6233 219.199 22.8961C219.199 24.1437 218.317 24.925 217.233 24.925C216.136 24.925 215.242 24.1185 215.242 22.8961C215.242 21.6989 216.149 20.8797 217.233 20.8797ZM213.868 17.1999V26.0088H215.09L215.166 25.0259C215.657 25.8198 216.489 26.1349 217.321 26.1349C219.123 26.1349 220.497 24.9502 220.497 22.8961C220.497 20.7789 219.136 19.6573 217.346 19.6573C216.59 19.6573 215.569 20.0354 215.166 20.7663V17.1999H213.868ZM224.69 19.6699C222.762 19.6699 221.489 21.0814 221.489 22.9087C221.489 24.7486 222.749 26.1349 224.69 26.1349C226.643 26.1349 227.916 24.7486 227.916 22.9087C227.916 21.0814 226.606 19.6699 224.69 19.6699ZM224.69 20.8671C225.824 20.8671 226.606 21.8123 226.606 22.9087C226.606 24.0177 225.887 24.925 224.69 24.925C223.505 24.925 222.787 24.0177 222.787 22.9087C222.787 21.8123 223.505 20.8671 224.69 20.8671ZM232.099 19.6699C230.171 19.6699 228.898 21.0814 228.898 22.9087C228.898 24.7486 230.158 26.1349 232.099 26.1349C234.052 26.1349 235.325 24.7486 235.325 22.9087C235.325 21.0814 234.014 19.6699 232.099 19.6699ZM232.099 20.8671C233.233 20.8671 234.014 21.8123 234.014 22.9087C234.014 24.0177 233.296 24.925 232.099 24.925C230.914 24.925 230.196 24.0177 230.196 22.9087C230.196 21.8123 230.914 20.8671 232.099 20.8671ZM236.697 17.1999V26.0088H238.008V23.1355L240.667 26.0088H242.255V25.9206L239.205 22.7196L241.889 19.8715V19.7959H240.314L238.008 22.3416V17.1999H236.697Z" fill="#1877F2"/>
<path d="M84.341 33.7623C84.0602 33.7373 83.7801 33.7025 83.5011 33.6587V24.8525H80.3012V21.2099H83.5011V18.4336C83.5011 15.2748 85.3827 13.5302 88.2614 13.5302C89.2065 13.5434 90.1492 13.6258 91.0822 13.7768V16.878H89.4932C87.9277 16.878 87.4395 17.8495 87.4395 18.8462V21.2099H90.9348L90.3759 24.8525H87.4395V33.6587C87.1605 33.7025 86.8805 33.7373 86.5997 33.7623C93.0306 33.1912 98.0726 27.7894 98.0726 21.21C98.0726 14.2499 92.4304 8.60773 85.4704 8.60773C78.5104 8.60773 72.8681 14.2499 72.8681 21.21C72.8681 27.7894 77.9101 33.1912 84.341 33.7623Z" fill="#1877F2"/>
</svg>
