<svg width="324" height="51" viewBox="0 0 324 51" fill="none" xmlns="http://www.w3.org/2000/svg">
<g filter="url(#filter0_d_6_14)">
<rect x="4.40488" y="0.639114" width="315.056" height="42.0075" rx="6.30112" fill="url(#paint0_linear_6_14)"/>
<path d="M140.049 17.0497V27.3416H147.283V25.5479H141.99V17.0497H140.049ZM153.298 16.8439C150.313 16.8439 147.961 19.0199 147.961 22.2692C147.961 24.9745 149.637 27.5768 153.254 27.5768C156.871 27.5768 158.503 24.9156 158.532 22.2545C158.562 19.5786 156.812 16.8733 153.298 16.8439ZM149.872 22.2986C149.813 20.2549 151.107 18.6082 153.298 18.6082C155.665 18.6523 156.65 20.5637 156.621 22.2839C156.591 23.9747 155.68 25.7978 153.254 25.7978C150.828 25.7978 149.916 23.9894 149.872 22.2986ZM169.012 18.3289C167.953 17.285 166.571 16.7557 165.189 16.7557C161.557 16.7557 159.749 19.4316 159.749 22.328C159.749 25.0333 161.322 27.5768 165.189 27.5768C166.997 27.5768 168.276 26.8858 169.291 25.7243V21.387H164.88V23.1219H167.512V24.9451C166.703 25.592 165.997 25.7684 165.189 25.7684C162.631 25.7684 161.645 24.0188 161.645 22.328C161.645 20.2108 162.983 18.5347 165.189 18.5347C166.086 18.5347 167.115 18.9023 167.806 19.5639L169.012 18.3289ZM173.204 27.3416V17.0497H171.278V27.3416H173.204ZM177.216 17.0497H175.643V27.3416H177.584V20.4902L183.053 27.3416H184.626V17.0497H182.686V23.9747L177.216 17.0497Z" fill="white"/>
</g>
<defs>
<filter id="filter0_d_6_14" x="0.404877" y="0.639114" width="323.056" height="50.0075" filterUnits="userSpaceOnUse" color-interpolation-filters="sRGB">
<feFlood flood-opacity="0" result="BackgroundImageFix"/>
<feColorMatrix in="SourceAlpha" type="matrix" values="0 0 0 0 0 0 0 0 0 0 0 0 0 0 0 0 0 0 127 0" result="hardAlpha"/>
<feOffset dy="4"/>
<feGaussianBlur stdDeviation="2"/>
<feComposite in2="hardAlpha" operator="out"/>
<feColorMatrix type="matrix" values="0 0 0 0 0 0 0 0 0 0 0 0 0 0 0 0 0 0 0.25 0"/>
<feBlend mode="normal" in2="BackgroundImageFix" result="effect1_dropShadow_6_14"/>
<feBlend mode="normal" in="SourceGraphic" in2="effect1_dropShadow_6_14" result="shape"/>
</filter>
<linearGradient id="paint0_linear_6_14" x1="335.214" y1="12.1913" x2="-15.0236" y2="33.72" gradientUnits="userSpaceOnUse">
<stop stop-color="#A336BD"/>
<stop offset="0.306902" stop-color="#FF387D"/>
<stop offset="0.683746" stop-color="#FF5D34"/>
<stop offset="1" stop-color="#FFAA1B"/>
</linearGradient>
</defs>
</svg>
